<svg width="175" height="87" viewBox="0 0 175 87" fill="none" xmlns="http://www.w3.org/2000/svg">
<path d="M124.161 57.771C130.745 51.1868 133.025 42.7913 129.253 39.0193C125.481 35.2472 117.085 37.5269 110.501 44.1111C103.917 50.6954 101.637 59.0908 105.409 62.8629C109.181 66.635 117.577 64.3553 124.161 57.771Z" fill="#E28D03"/>
<path d="M12.822 73.3C8.52197 73.3 5.11497 71.137 2.33597 67.162C-0.709027 62.818 -0.268027 61.111 0.808973 61.111C1.70897 61.111 3.13997 61.206 4.30297 61.206C18.461 61.206 29.753 55.528 29.753 49.776C29.753 47.226 28.231 45.72 23.48 42.597C19.453 39.952 15.599 37.4 15.599 32.111C15.599 25.121 22.14 18.05 31.639 11.33C40.779 4.819 50.817 0 56.282 0C59.508 0 61.568 1.7 63.818 5.1C65.878 8.123 65.789 9.635 64.9 9.919C55.7551 13.1331 47.0066 17.3795 38.824 22.576C29.747 28.338 25.456 32.4 25.456 36.461C25.456 38.624 27.427 40.517 29.669 42.034C33.609 44.682 38.809 47.8 38.809 53.464C38.809 63.477 23.933 73.3 12.822 73.3Z" fill="white"/>
<path d="M46.241 69.05C43.641 68.296 39.521 65.935 39.073 62.723C38.624 59.795 41.223 55.071 45.793 48.648C52.337 39.484 55.203 35.233 56.279 33.062C56.725 32.21 57.179 31.645 57.801 31.645C58.423 31.645 59.234 32.21 61.027 32.778C65.508 34.195 66.852 35.233 66.046 38.727C70.878 35.427 74.634 33.722 76.435 33.722C77.957 33.722 79.123 34.101 81.094 35.522C82.887 36.844 83.514 38.261 82.887 40.906C82.3236 42.8412 81.6355 44.7378 80.827 46.584C86.803 39.97 92.614 33.661 96.213 33.161C97.725 32.953 99.106 34.175 99.999 34.994C101.456 36.281 102.406 37.517 102.316 39.12C102.046 44.033 91.678 54.895 88.988 61.791C93.561 61.037 97.322 57.543 103.588 48.663L103.858 48.284C104.485 47.435 104.669 47.34 104.94 47.622L105.21 47.906C105.471 48.122 105.636 48.4323 105.669 48.7694C105.703 49.1065 105.602 49.4431 105.388 49.706L105.118 50.179C99.475 60.097 92.036 67.463 86.118 67.463C84.3308 67.4624 82.5731 67.0075 81.01 66.141C78.322 64.441 78.052 62.931 78.501 60.003C79.042 57.358 83.944 47.74 85.291 44.622C82.6 46.607 75.991 55.752 72.312 61.514C69.086 66.519 68.188 67.936 66.844 67.936C65.5 67.936 64.605 66.992 62.544 66.136C59.229 64.814 59.05 62.642 60.037 60.187C61.737 56.217 64.875 51.307 68.19 46.299C69.7053 44.2697 70.9413 42.0462 71.865 39.688C67.8109 42.8555 64.006 46.3297 60.484 50.08C57.169 55.274 53.764 60.08 50.449 65.855C49.194 68.015 47.491 69.429 46.241 69.05Z" fill="white"/>
<path d="M102.421 64.622C98.4779 60.087 97.6729 53.097 103.232 45.35C107.713 39.023 115.332 32.787 121.422 32.787C124.378 32.787 127.874 34.68 129.039 36.573C131.456 37.614 132.622 40.448 132.622 43.847C132.607 44.6061 132.548 45.3638 132.444 46.116C138.358 45.643 142.481 42.716 146.335 38.653L146.692 38.274C147.409 37.52 147.679 37.614 147.947 38.004L148.125 38.274C148.307 38.5069 148.399 38.7983 148.383 39.0937C148.366 39.3892 148.243 39.6686 148.036 39.88L147.679 40.353C144.542 44.509 138.629 49.42 131.455 50.088C130.807 52.0848 129.967 54.0144 128.948 55.85C124.648 63.692 118.105 68.886 111.204 68.886C107.353 68.864 104.841 67.258 102.421 64.622ZM111.021 62.164C116.007 65.003 122.938 55.264 126.345 49.696C122.581 48.752 121.056 46.108 121.056 43.555C118.212 46.3732 115.742 49.5459 113.709 52.995C111.738 56.195 109.309 60.837 111.021 62.151V62.164ZM128.221 45.729C128.66 44.4508 128.903 43.1131 128.94 41.762C128.94 40.44 128.491 39.399 127.685 39.115C126.735 39.4364 125.831 39.882 124.997 40.44C124.997 40.627 124.905 40.91 124.905 41.289C124.852 42.2983 125.154 43.2942 125.76 44.1032C126.366 44.9122 127.236 45.483 128.22 45.716L128.221 45.729Z" fill="#FFEC00"/>
<path d="M135.843 69.051C134.921 68.3265 134.186 67.3904 133.703 66.322C133.219 65.2535 132.999 64.0842 133.063 62.913C133.063 59.322 135.034 53.749 138.171 48.649C151.421 27.111 160.485 13.037 167.832 2.08002C167.902 1.92719 168.004 1.79149 168.132 1.68238C168.26 1.57328 168.41 1.49341 168.572 1.44836C168.734 1.40331 168.904 1.39417 169.07 1.42157C169.235 1.44898 169.393 1.51227 169.532 1.60702C172.398 3.02402 174.997 4.44102 174.997 7.46402C174.997 11.336 172.58 15.964 151.788 48.649C146.323 57.249 144.709 61.685 144.798 64.049C148.832 63.105 153.848 59.993 158.151 55.642C158.692 55.169 158.962 55.453 159.051 56.112C159.284 57.0997 159.156 58.138 158.691 59.04C153.046 66.687 146.683 71.603 141.846 71.603C139.602 71.5068 137.469 70.6001 135.843 69.051Z" fill="white"/>
<path d="M112.596 31.097C112.618 31.2006 112.603 31.3086 112.555 31.4029C112.506 31.4971 112.427 31.5719 112.33 31.6146C112.233 31.6574 112.125 31.6656 112.023 31.6378C111.92 31.61 111.831 31.5479 111.769 31.462C110.006 28.974 107.142 24.453 108.759 23.35C110.376 22.247 111.904 27.901 112.596 31.097Z" fill="#FFEC00"/>
<path d="M125.116 27.395C124.916 27.838 124.372 27.763 124.375 27.295C124.391 24.385 124.681 18.595 126.733 18.672C128.785 18.749 126.408 24.561 125.116 27.395Z" fill="#FFEC00"/>
<path d="M135.189 33.016C134.697 33.395 134.148 32.951 134.483 32.443C136.519 29.366 140.343 24.09 142.171 24.985C143.999 25.88 138.388 30.557 135.189 33.016Z" fill="#FFEC00"/>
<path d="M39.9088 83.847C39.6434 83.6245 39.4385 83.3385 39.3132 83.0156C39.1878 82.6927 39.1461 82.3434 39.1918 82V75.543H43.6158V76.354H40.1618V79.031H43.5018V79.842H40.1618V81.942C40.1327 82.1401 40.1482 82.3422 40.2072 82.5336C40.2662 82.725 40.3672 82.9007 40.5028 83.048H43.7968V83.859L39.9088 83.847ZM41.5798 75.083H40.8338L42.2338 73.26H43.3158L41.5798 75.083Z" fill="#FFEC00"/>
<path d="M51.1901 84.036C50.9279 84.0529 50.665 84.0156 50.418 83.9263C50.1709 83.837 49.9449 83.6977 49.7541 83.5171V86.1991H48.8721V77.635H49.6831V78.6461C49.8684 78.2948 50.1433 77.9987 50.48 77.788C50.8167 77.5772 51.2031 77.4592 51.6001 77.446C53.0141 77.446 53.9071 78.774 53.9071 80.61C53.9071 82.446 53.0021 84.036 51.1901 84.036ZM51.3201 78.2111C51.0606 78.2229 50.8077 78.2968 50.5827 78.4266C50.3577 78.5564 50.1672 78.7383 50.0271 78.9571C49.9338 79.0562 49.8617 79.1733 49.8153 79.3012C49.7689 79.4291 49.7491 79.5652 49.7571 79.701V82.4731C49.7571 82.9791 50.2031 83.3791 51.0571 83.3791C52.3501 83.3791 53.0091 82.2491 53.0091 80.8021C53.0091 79.3551 52.4371 78.2121 51.3201 78.2121V78.2111Z" fill="#FFEC00"/>
<path d="M58.328 78.4359C58.1782 78.3624 58.0139 78.3228 57.847 78.3199C57.613 78.3268 57.385 78.3958 57.1864 78.5199C56.9878 78.644 56.8258 78.8186 56.717 79.0259C56.5556 79.2286 56.4763 79.4845 56.495 79.743V83.843H55.624V78.6609C55.624 78.3909 55.529 78.2119 55.318 78.2119C55.2255 78.2172 55.1343 78.2371 55.048 78.2709L54.978 77.6599C55.1865 77.5914 55.4045 77.556 55.624 77.555C56.165 77.555 56.435 77.8849 56.4 78.6609C56.5479 78.3418 56.7742 78.0652 57.0578 77.8571C57.3415 77.6491 57.6732 77.5162 58.022 77.4709C58.2115 77.4727 58.3991 77.5083 58.576 77.576L58.328 78.4359Z" fill="#FFEC00"/>
<path d="M63.5289 83.9179C62.8939 83.9179 62.7639 83.461 62.7419 82.955C62.538 83.2841 62.2539 83.5561 61.9161 83.7454C61.5783 83.9346 61.198 84.035 60.8109 84.037C60.5843 84.0486 60.3577 84.0141 60.1448 83.9356C59.9319 83.8571 59.7371 83.7363 59.5723 83.5803C59.4075 83.4244 59.276 83.2366 59.1859 83.0284C59.0957 82.8202 59.0488 82.5958 59.0479 82.369C59.0479 80.698 60.7158 80.3919 62.0818 80.3919C62.6228 80.3919 62.6819 80.3789 62.6819 80.2159V79.5319C62.6994 79.3479 62.6756 79.1623 62.6123 78.9887C62.549 78.815 62.4478 78.6577 62.3159 78.5282C62.1841 78.3986 62.025 78.3001 61.8503 78.2399C61.6755 78.1797 61.4895 78.1592 61.3058 78.1799C61.0093 78.1709 60.7144 78.2273 60.442 78.345C60.1697 78.4627 59.9265 78.6388 59.7299 78.8609L59.3409 78.2499C59.6255 77.9837 59.961 77.7778 60.3271 77.6444C60.6933 77.5111 61.0827 77.4531 61.4718 77.4739C61.7488 77.4512 62.0274 77.4892 62.2882 77.5853C62.549 77.6814 62.7856 77.8332 62.9816 78.0303C63.1776 78.2273 63.3282 78.4647 63.4229 78.726C63.5176 78.9873 63.5541 79.2661 63.5298 79.5429V82.8849C63.5298 83.1199 63.5998 83.2719 63.8248 83.2719C63.9168 83.2725 64.0082 83.2569 64.0948 83.2259L64.1649 83.8369C63.9574 83.8922 63.7435 83.9194 63.5289 83.9179ZM62.6828 80.9999H62.0479C61.1419 80.9999 59.9308 81.1409 59.9308 82.2819C59.9281 82.4299 59.9562 82.5767 60.0134 82.7132C60.0705 82.8496 60.1555 82.9727 60.2628 83.0745C60.3702 83.1763 60.4976 83.2546 60.6369 83.3044C60.7761 83.3543 60.9243 83.3745 61.0719 83.3639C61.3371 83.3623 61.5981 83.2973 61.8333 83.1745C62.0684 83.0517 62.2709 82.8747 62.4238 82.658C62.5857 82.4722 62.6733 82.2333 62.6698 81.9869L62.6828 80.9999Z" fill="#FFEC00"/>
<path d="M70.6101 84.047C70.3905 84.0577 70.1711 84.0208 69.9671 83.9388C69.7631 83.8567 69.5793 83.7315 69.4282 83.5717C69.2772 83.4119 69.1625 83.2213 69.092 83.013C69.0216 82.8047 68.9971 82.5836 69.0201 82.365V78.436H67.9741V77.755H69.0201V76.365L69.9041 76.095V77.766H71.5971V78.447H69.9041V82.284C69.9041 82.979 70.2451 83.344 70.8911 83.344C71.1302 83.3484 71.3658 83.2868 71.5721 83.166L71.7371 83.837C71.3792 83.9813 70.996 84.0527 70.6101 84.047Z" fill="#FFEC00"/>
<path d="M75.1748 84.072C73.2358 84.072 72.4248 82.401 72.4248 80.719C72.4248 79.037 73.3168 77.426 75.2248 77.426C77.1328 77.426 77.9778 79.048 77.9778 80.726C77.9738 82.365 77.0678 84.072 75.1748 84.072ZM75.2238 78.123C73.8238 78.123 73.3308 79.545 73.3308 80.711C73.3308 81.877 73.7418 83.345 75.1638 83.345C76.5858 83.345 77.0568 81.852 77.0568 80.722C77.0568 79.592 76.6428 78.131 75.2208 78.131L75.2238 78.123Z" fill="#FFEC00"/>
<path d="M84.2061 83.942C83.4891 83.942 83.3951 83.4011 83.3951 82.8361C83.214 83.1858 82.9434 83.4811 82.6108 83.692C82.2782 83.9028 81.8956 84.0215 81.5021 84.036C80.0551 84.036 79.1851 82.611 79.1851 80.791C79.1851 78.971 80.1121 77.4621 81.9031 77.4621C82.163 77.4435 82.424 77.4798 82.669 77.5687C82.914 77.6576 83.1375 77.7971 83.3251 77.9781V75.1431H84.2071V82.882C84.2071 83.117 84.2771 83.2711 84.5021 83.2711C84.5935 83.2655 84.684 83.2501 84.7721 83.225L84.8451 83.8361C84.6374 83.8985 84.4227 83.9341 84.2061 83.942ZM83.3241 79.0261C83.3241 78.4851 82.8891 78.1201 82.0181 78.1201C80.6661 78.1201 80.0901 79.237 80.0901 80.613C80.0901 82.07 80.6311 83.2711 81.7831 83.2711C82.0413 83.2627 82.2934 83.1907 82.5171 83.0614C82.7407 82.9321 82.929 82.7496 83.0651 82.5301C83.1584 82.4316 83.2306 82.3151 83.277 82.1876C83.3235 82.0601 83.3433 81.9245 83.3351 81.7891L83.3241 79.0261Z" fill="#FFEC00"/>
<path d="M88.6729 84.072C86.7309 84.072 85.9199 82.401 85.9199 80.719C85.9199 79.037 86.8199 77.426 88.7199 77.426C90.6199 77.426 91.4729 79.048 91.4729 80.726C91.4729 82.365 90.5869 84.072 88.6729 84.072ZM88.7219 78.123C87.3219 78.123 86.8289 79.545 86.8289 80.711C86.8289 81.877 87.2399 83.345 88.6619 83.345C90.0839 83.345 90.5549 81.852 90.5549 80.722C90.5549 79.592 90.1439 78.131 88.7219 78.131V78.123Z" fill="#FFEC00"/>
<path d="M103.921 83.851V79.641C103.945 79.455 103.927 79.2661 103.869 79.088C103.81 78.9099 103.712 78.7472 103.583 78.6118C103.453 78.4764 103.295 78.3718 103.119 78.3055C102.944 78.2393 102.756 78.2131 102.569 78.229C102.296 78.2307 102.027 78.3016 101.788 78.435C101.549 78.5684 101.348 78.76 101.203 78.992C101.117 79.0917 101.052 79.2077 101.011 79.3331C100.971 79.4585 100.956 79.5907 100.968 79.722V83.851H100.086V79.641C100.11 79.455 100.092 79.2661 100.034 79.088C99.975 78.9099 99.8772 78.7472 99.7476 78.6118C99.6179 78.4764 99.4596 78.3718 99.2843 78.3055C99.1089 78.2393 98.9209 78.2131 98.7341 78.229C98.4629 78.2331 98.1971 78.305 97.961 78.4383C97.7248 78.5716 97.5258 78.762 97.3821 78.992C97.2953 79.0912 97.2297 79.2072 97.1892 79.3327C97.1488 79.4582 97.1345 79.5907 97.1471 79.722V83.851H96.2661V77.632H97.0911V78.608C97.2807 78.2607 97.559 77.97 97.8978 77.7657C98.2366 77.5613 98.6235 77.4507 99.0191 77.445C99.4199 77.4124 99.8197 77.5185 100.152 77.7455C100.483 77.9725 100.727 78.3066 100.842 78.692C101.036 78.3259 101.323 78.0177 101.674 77.7987C102.025 77.5796 102.428 77.4576 102.842 77.445C103.113 77.4291 103.384 77.4727 103.636 77.5728C103.888 77.6728 104.115 77.8269 104.301 78.0241C104.487 78.2213 104.627 78.4569 104.713 78.7143C104.798 78.9717 104.826 79.2447 104.794 79.514V83.84L103.921 83.851Z" fill="#FFEC00"/>
<path d="M111.507 83.942C110.79 83.942 110.696 83.426 110.696 82.896C110.498 83.2372 110.215 83.5215 109.875 83.7214C109.534 83.9213 109.148 84.03 108.754 84.037C108.483 84.0528 108.211 84.0092 107.958 83.9091C107.706 83.8091 107.478 83.6551 107.291 83.4579C107.104 83.2606 106.962 83.0249 106.876 82.7672C106.79 82.5095 106.761 82.2361 106.791 81.966V77.639H107.673V81.852C107.651 82.0392 107.671 82.229 107.731 82.4076C107.791 82.5863 107.89 82.7495 108.02 82.8854C108.151 83.0213 108.31 83.1267 108.486 83.1939C108.662 83.2611 108.851 83.2884 109.039 83.274C109.31 83.2698 109.576 83.1975 109.812 83.0639C110.049 82.9302 110.248 82.7394 110.391 82.509C110.478 82.4077 110.544 82.2899 110.584 82.1625C110.625 82.0352 110.639 81.901 110.626 81.768V77.636H111.508V82.882C111.508 83.117 111.568 83.271 111.803 83.271C111.899 83.2655 111.994 83.2501 112.087 83.225L112.157 83.836C111.945 83.8977 111.727 83.9333 111.507 83.942Z" fill="#FFEC00"/>
<path d="M117.753 83.851V79.641C117.774 79.4505 117.753 79.2575 117.689 79.0765C117.626 78.8955 117.523 78.7311 117.387 78.5954C117.252 78.4598 117.087 78.3564 116.906 78.293C116.725 78.2295 116.532 78.2077 116.342 78.229C116.059 78.2291 115.78 78.2987 115.53 78.4317C115.28 78.5648 115.067 78.7572 114.909 78.992C114.812 79.0857 114.738 79.2 114.691 79.3263C114.644 79.4527 114.626 79.5879 114.639 79.722V83.851H113.757V77.632H114.568V78.632C114.776 78.2752 115.073 77.9783 115.429 77.7702C115.786 77.5622 116.191 77.4502 116.604 77.445C116.878 77.4246 117.154 77.4645 117.411 77.5621C117.668 77.6597 117.901 77.8125 118.093 78.0098C118.285 78.207 118.431 78.4439 118.521 78.7038C118.612 78.9637 118.644 79.2403 118.616 79.514V83.84L117.753 83.851Z" fill="#FFEC00"/>
<path d="M125.165 83.942C124.446 83.942 124.34 83.4011 124.34 82.8361C124.159 83.1862 123.889 83.482 123.556 83.6929C123.223 83.9038 122.841 84.0222 122.447 84.036C121 84.036 120.13 82.611 120.13 80.791C120.13 78.971 121.06 77.4621 122.83 77.4621C123.09 77.4434 123.352 77.4797 123.597 77.5686C123.843 77.6575 124.067 77.797 124.255 77.9781V75.1431H125.136V82.882C125.136 83.117 125.206 83.2711 125.428 83.2711C125.524 83.2663 125.619 83.2508 125.712 83.225L125.782 83.8361C125.581 83.8969 125.374 83.9325 125.165 83.942ZM124.283 79.0261C124.283 78.4851 123.845 78.1201 122.977 78.1201C121.625 78.1201 121.046 79.237 121.046 80.613C121.046 82.07 121.6 83.2711 122.746 83.2711C123.004 83.2624 123.256 83.1903 123.48 83.0611C123.703 82.9318 123.892 82.7494 124.028 82.5301C124.121 82.4313 124.193 82.3147 124.239 82.1873C124.285 82.0599 124.305 81.9244 124.298 81.7891L124.283 79.0261Z" fill="#FFEC00"/>
<path d="M129.635 84.072C127.693 84.072 126.882 82.401 126.882 80.719C126.882 79.037 127.774 77.426 129.682 77.426C131.59 77.426 132.435 79.048 132.435 80.726C132.433 82.365 131.538 84.072 129.635 84.072ZM129.681 78.123C128.281 78.123 127.788 79.545 127.788 80.711C127.788 81.877 128.199 83.345 129.624 83.345C131.049 83.345 131.517 81.852 131.517 80.722C131.517 79.592 131.103 78.131 129.681 78.131V78.123Z" fill="#FFEC00"/>
<path d="M134.575 83.918C134.495 83.9233 134.415 83.9119 134.34 83.8847C134.265 83.8574 134.196 83.8148 134.139 83.7596C134.081 83.7044 134.035 83.6378 134.005 83.564C133.974 83.4902 133.959 83.4109 133.961 83.331C133.957 83.2107 133.989 83.0921 134.053 82.9902C134.117 82.8882 134.21 82.8076 134.32 82.7586C134.429 82.7096 134.551 82.6944 134.67 82.715C134.789 82.7355 134.898 82.7909 134.985 82.874C135.072 82.9572 135.132 83.0643 135.158 83.1818C135.184 83.2993 135.174 83.4218 135.13 83.5338C135.086 83.6458 135.01 83.7421 134.911 83.8105C134.812 83.8789 134.695 83.9163 134.575 83.918Z" fill="#FFEC00"/>
<path d="M137.868 83.918C137.788 83.9233 137.709 83.9119 137.633 83.8847C137.558 83.8574 137.49 83.8148 137.432 83.7596C137.374 83.7044 137.329 83.6378 137.298 83.564C137.267 83.4902 137.253 83.4109 137.254 83.331C137.25 83.2107 137.283 83.0921 137.346 82.9902C137.41 82.8882 137.503 82.8076 137.613 82.7586C137.723 82.7096 137.845 82.6944 137.963 82.715C138.082 82.7355 138.192 82.7909 138.279 82.874C138.366 82.9572 138.426 83.0643 138.452 83.1818C138.478 83.2993 138.468 83.4218 138.424 83.5338C138.38 83.6458 138.303 83.7421 138.205 83.8105C138.106 83.8789 137.988 83.9163 137.868 83.918Z" fill="#FFEC00"/>
<path d="M141.153 83.9171C141.073 83.9219 140.994 83.9102 140.919 83.8828C140.844 83.8553 140.776 83.8126 140.719 83.7575C140.661 83.7023 140.616 83.6359 140.585 83.5623C140.555 83.4887 140.54 83.4097 140.542 83.3301C140.538 83.2097 140.57 83.0909 140.634 82.9889C140.698 82.8869 140.791 82.8063 140.901 82.7573C141.011 82.7084 141.133 82.6934 141.252 82.7142C141.371 82.735 141.48 82.7906 141.567 82.8741C141.654 82.9575 141.714 83.0649 141.74 83.1826C141.765 83.3003 141.755 83.423 141.711 83.5349C141.666 83.6468 141.589 83.7429 141.49 83.811C141.391 83.8791 141.273 83.916 141.153 83.9171Z" fill="#FFEC00"/>
</svg>
